<?xml version="1.0" encoding="UTF-8" standalone="no"?>
<!DOCTYPE svg PUBLIC "-//W3C//DTD SVG 1.1//EN"
 "http://www.w3.org/Graphics/SVG/1.1/DTD/svg11.dtd">
<!-- Generated by graphviz version 2.40.1 (20161225.0304)
 -->
<!-- Title: gcdt sample stack Pages: 1 -->
<svg width="2108pt" height="476pt"
 viewBox="0.00 0.00 2107.53 476.00" xmlns="http://www.w3.org/2000/svg" xmlns:xlink="http://www.w3.org/1999/xlink">
<g id="graph0" class="graph" transform="scale(1 1) rotate(0) translate(4 472)">
<title>gcdt sample stack</title>
<polygon fill="#ffffff" stroke="transparent" points="-4,4 -4,-472 2103.5347,-472 2103.5347,4 -4,4"/>
<!-- unittestGcdtSupercarsToySampleConfig -->
<g id="node1" class="node">
<title>unittestGcdtSupercarsToySampleConfig</title>
<polygon fill="none" stroke="#000000" points="374.4919,-396 132.8391,-396 132.8391,-360 374.4919,-360 374.4919,-396"/>
<text text-anchor="start" x="220.3354" y="-383.6" font-family="Times,serif" font-size="8.00" fill="#000000">[DeploymentConfig]</text>
<text text-anchor="start" x="141.0024" y="-370.8" font-family="Times,serif" font-size="14.00" fill="#000000">unittestGcdtSupercarsToySampleConfig</text>
</g>
<!-- unittestGcdtSupercarsToySampleDg -->
<g id="node13" class="node">
<title>unittestGcdtSupercarsToySampleDg</title>
<polygon fill="none" stroke="#000000" points="579.9782,-108 359.3528,-108 359.3528,-72 579.9782,-72 579.9782,-108"/>
<text text-anchor="start" x="437.0073" y="-95.6" font-family="Times,serif" font-size="8.00" fill="#000000">[DeploymentGroup]</text>
<text text-anchor="start" x="367.5093" y="-82.8" font-family="Times,serif" font-size="14.00" fill="#000000">unittestGcdtSupercarsToySampleDg</text>
</g>
<!-- unittestGcdtSupercarsToySampleConfig&#45;&gt;unittestGcdtSupercarsToySampleDg -->
<g id="edge23" class="edge">
<title>unittestGcdtSupercarsToySampleConfig&#45;&gt;unittestGcdtSupercarsToySampleDg</title>
<path fill="none" stroke="#000000" d="M267.1773,-359.9843C304.0739,-310.7889 406.6682,-173.9965 449.975,-116.254"/>
<polygon fill="#000000" stroke="#000000" points="452.9588,-118.1089 456.1589,-108.0089 447.3588,-113.9089 452.9588,-118.1089"/>
</g>
<!-- DeploymentConfig -->
<g id="node31" class="node">
<title>DeploymentConfig</title>
<path fill="#d3d3d3" stroke="#000000" d="M111.497,-36C111.497,-36 11.834,-36 11.834,-36 5.834,-36 -.166,-30 -.166,-24 -.166,-24 -.166,-12 -.166,-12 -.166,-6 5.834,0 11.834,0 11.834,0 111.497,0 111.497,0 117.497,0 123.497,-6 123.497,-12 123.497,-12 123.497,-24 123.497,-24 123.497,-30 117.497,-36 111.497,-36"/>
<text text-anchor="middle" x="61.6655" y="-13.8" font-family="Times,serif" font-size="14.00" fill="#000000">DeploymentConfig</text>
</g>
<!-- unittestGcdtSupercarsToySampleConfig&#45;&gt;DeploymentConfig -->
<g id="edge38" class="edge">
<title>unittestGcdtSupercarsToySampleConfig&#45;&gt;DeploymentConfig</title>
<path fill="none" stroke="#000000" d="M191.3286,-359.9861C135.2659,-339.5054 61.6655,-300.0417 61.6655,-234 61.6655,-234 61.6655,-234 61.6655,-162 61.6655,-121.876 61.6655,-75.4631 61.6655,-46.4177"/>
<polygon fill="#000000" stroke="#000000" points="65.1656,-46.1853 61.6655,-36.1854 58.1656,-46.1854 65.1656,-46.1853"/>
</g>
<!-- ScaleDown1 -->
<g id="node2" class="node">
<title>ScaleDown1</title>
<polygon fill="none" stroke="#000000" points="1209.2048,-108 1122.1262,-108 1122.1262,-72 1209.2048,-72 1209.2048,-108"/>
<text text-anchor="start" x="1140.7808" y="-95.6" font-family="Times,serif" font-size="8.00" fill="#000000">[ScalingPolicy]</text>
<text text-anchor="start" x="1129.8965" y="-82.8" font-family="Times,serif" font-size="14.00" fill="#000000">ScaleDown1</text>
</g>
<!-- EC2Basics -->
<g id="node3" class="node">
<title>EC2Basics</title>
<polygon fill="none" stroke="#000000" points="1126.6082,-396 1048.7229,-396 1048.7229,-360 1126.6082,-360 1126.6082,-396"/>
<text text-anchor="start" x="1067.4468" y="-383.6" font-family="Times,serif" font-size="8.00" fill="#000000">[EC2Basics]</text>
<text text-anchor="start" x="1056.9448" y="-370.8" font-family="Times,serif" font-size="14.00" fill="#000000">EC2Basics</text>
</g>
<!-- SupercarsAutoscalingGroup -->
<g id="node9" class="node">
<title>SupercarsAutoscalingGroup</title>
<polygon fill="none" stroke="#000000" points="1184.7939,-180 1010.5372,-180 1010.5372,-144 1184.7939,-144 1184.7939,-180"/>
<text text-anchor="start" x="1064.7827" y="-167.6" font-family="Times,serif" font-size="8.00" fill="#000000">[AutoScalingGroup]</text>
<text text-anchor="start" x="1018.3516" y="-154.8" font-family="Times,serif" font-size="14.00" fill="#000000">SupercarsAutoscalingGroup</text>
</g>
<!-- EC2Basics&#45;&gt;SupercarsAutoscalingGroup -->
<g id="edge14" class="edge">
<title>EC2Basics&#45;&gt;SupercarsAutoscalingGroup</title>
<path fill="none" stroke="#000000" d="M1088.5009,-359.9555C1090.2399,-322.3938 1094.2602,-235.5541 1096.3502,-190.4103"/>
<polygon fill="#000000" stroke="#000000" points="1099.8592,-190.2963 1096.8255,-180.1451 1092.8667,-189.9725 1099.8592,-190.2963"/>
</g>
<!-- SupercarsElasticLoadBalancer -->
<g id="node15" class="node">
<title>SupercarsElasticLoadBalancer</title>
<polygon fill="#ff0000" stroke="#000000" points="1072.4732,-324 884.8578,-324 884.8578,-288 1072.4732,-288 1072.4732,-324"/>
<text text-anchor="start" x="953.5698" y="-311.6" font-family="Times,serif" font-size="8.00" fill="#000000">[LoadBalancer]</text>
<text text-anchor="start" x="892.7617" y="-298.8" font-family="Times,serif" font-size="14.00" fill="#000000">SupercarsElasticLoadBalancer</text>
</g>
<!-- EC2Basics&#45;&gt;SupercarsElasticLoadBalancer -->
<g id="edge25" class="edge">
<title>EC2Basics&#45;&gt;SupercarsElasticLoadBalancer</title>
<path fill="none" stroke="#000000" d="M1060.1602,-359.8314C1046.3475,-350.7074 1029.4399,-339.539 1014.6126,-329.7449"/>
<polygon fill="#000000" stroke="#000000" points="1016.4351,-326.7541 1006.162,-324.1628 1012.5769,-332.5949 1016.4351,-326.7541"/>
</g>
<!-- LaunchConfiguration -->
<g id="node17" class="node">
<title>LaunchConfiguration</title>
<polygon fill="none" stroke="#000000" points="1311.4245,-252 1175.9065,-252 1175.9065,-216 1311.4245,-216 1311.4245,-252"/>
<text text-anchor="start" x="1206.7847" y="-239.6" font-family="Times,serif" font-size="8.00" fill="#000000">[LaunchConfiguration]</text>
<text text-anchor="start" x="1183.7861" y="-226.8" font-family="Times,serif" font-size="14.00" fill="#000000">LaunchConfiguration</text>
</g>
<!-- EC2Basics&#45;&gt;LaunchConfiguration -->
<g id="edge29" class="edge">
<title>EC2Basics&#45;&gt;LaunchConfiguration</title>
<path fill="none" stroke="#000000" d="M1097.4721,-359.752C1112.469,-341.0863 1140.5393,-311.5644 1166.6655,-288 1178.0349,-277.7454 1191.0859,-267.1282 1203.2568,-258.05"/>
<polygon fill="#000000" stroke="#000000" points="1205.4908,-260.7528 1211.5107,-252.0344 1201.3678,-255.0958 1205.4908,-260.7528"/>
</g>
<!-- EC2Basics&#45;&gt;LaunchConfiguration -->
<g id="edge31" class="edge">
<title>EC2Basics&#45;&gt;LaunchConfiguration</title>
<path fill="none" stroke="#000000" d="M1110.9946,-359.752C1130.469,-341.0863 1158.5393,-311.5644 1184.6655,-288 1195.8163,-277.9426 1208.5846,-267.5364 1219.4933,-258.5754"/>
<polygon fill="#000000" stroke="#000000" points="1221.9326,-261.1003 1227.4152,-252.0344 1217.4756,-255.7025 1221.9326,-261.1003"/>
</g>
<!-- CodedeployCodedeploytrustrole -->
<g id="node4" class="node">
<title>CodedeployCodedeploytrustrole</title>
<polygon fill="none" stroke="#000000" points="331.6314,-180 133.6997,-180 133.6997,-144 331.6314,-144 331.6314,-180"/>
<text text-anchor="start" x="222.4468" y="-167.6" font-family="Times,serif" font-size="8.00" fill="#000000">[Role]</text>
<text text-anchor="start" x="141.6826" y="-154.8" font-family="Times,serif" font-size="14.00" fill="#000000">CodedeployCodedeploytrustrole</text>
</g>
<!-- CodedeployCodedeploytrustrole&#45;&gt;unittestGcdtSupercarsToySampleDg -->
<g id="edge22" class="edge">
<title>CodedeployCodedeploytrustrole&#45;&gt;unittestGcdtSupercarsToySampleDg</title>
<path fill="none" stroke="#000000" d="M292.1647,-143.9243C324.9866,-133.9531 365.9161,-121.5188 400.1982,-111.104"/>
<polygon fill="#000000" stroke="#000000" points="401.591,-114.3389 410.1419,-108.0831 399.5562,-107.6411 401.591,-114.3389"/>
</g>
<!-- CodedeployCodedeployrolepoliciesPolicy -->
<g id="node16" class="node">
<title>CodedeployCodedeployrolepoliciesPolicy</title>
<polygon fill="none" stroke="#000000" points="342.0662,-108 89.2648,-108 89.2648,-72 342.0662,-72 342.0662,-108"/>
<text text-anchor="start" x="202.7788" y="-95.6" font-family="Times,serif" font-size="8.00" fill="#000000">[Policy]</text>
<text text-anchor="start" x="97.4653" y="-82.8" font-family="Times,serif" font-size="14.00" fill="#000000">CodedeployCodedeployrolepoliciesPolicy</text>
</g>
<!-- CodedeployCodedeploytrustrole&#45;&gt;CodedeployCodedeployrolepoliciesPolicy -->
<g id="edge28" class="edge">
<title>CodedeployCodedeploytrustrole&#45;&gt;CodedeployCodedeployrolepoliciesPolicy</title>
<path fill="none" stroke="#000000" d="M228.3757,-143.8314C226.5576,-136.131 224.3956,-126.9743 222.375,-118.4166"/>
<polygon fill="#000000" stroke="#000000" points="225.7174,-117.3414 220.0131,-108.4133 218.9048,-118.95 225.7174,-117.3414"/>
</g>
<!-- InstanceRoleSupercarsServiceSupercarsToySample -->
<g id="node5" class="node">
<title>InstanceRoleSupercarsServiceSupercarsToySample</title>
<polygon fill="none" stroke="#000000" points="1756.1958,-324 1451.1353,-324 1451.1353,-288 1756.1958,-288 1756.1958,-324"/>
<text text-anchor="start" x="1577.0073" y="-311.6" font-family="Times,serif" font-size="8.00" fill="#000000">[InstanceProfile]</text>
<text text-anchor="start" x="1459.1504" y="-298.8" font-family="Times,serif" font-size="14.00" fill="#000000">InstanceRoleSupercarsServiceSupercarsToySample</text>
</g>
<!-- InstanceRoleSupercarsServiceSupercarsToySample&#45;&gt;LaunchConfiguration -->
<g id="edge32" class="edge">
<title>InstanceRoleSupercarsServiceSupercarsToySample&#45;&gt;LaunchConfiguration</title>
<path fill="none" stroke="#000000" d="M1513.287,-287.9243C1454.2441,-276.1157 1377.929,-260.8527 1321.5677,-249.5804"/>
<polygon fill="#000000" stroke="#000000" points="1322.1317,-246.124 1311.6395,-247.5948 1320.7588,-252.9881 1322.1317,-246.124"/>
</g>
<!-- unittestGcdtSupercarsToySample -->
<g id="node6" class="node">
<title>unittestGcdtSupercarsToySample</title>
<polygon fill="none" stroke="#000000" points="692.3678,-180 488.9633,-180 488.9633,-144 692.3678,-144 692.3678,-180"/>
<text text-anchor="start" x="569.1167" y="-167.6" font-family="Times,serif" font-size="8.00" fill="#000000">[Application]</text>
<text text-anchor="start" x="497.0645" y="-154.8" font-family="Times,serif" font-size="14.00" fill="#000000">unittestGcdtSupercarsToySample</text>
</g>
<!-- unittestGcdtSupercarsToySample&#45;&gt;unittestGcdtSupercarsToySampleDg -->
<g id="edge20" class="edge">
<title>unittestGcdtSupercarsToySample&#45;&gt;unittestGcdtSupercarsToySampleDg</title>
<path fill="none" stroke="#000000" d="M560.1321,-143.8314C544.6555,-134.6221 525.6786,-123.3301 509.1092,-113.4706"/>
<polygon fill="#000000" stroke="#000000" points="510.5726,-110.2687 500.1892,-108.1628 506.9931,-116.2843 510.5726,-110.2687"/>
</g>
<!-- applicationName -->
<g id="node27" class="node">
<title>applicationName</title>
<path fill="#d3d3d3" stroke="#000000" d="M651.2941,-36C651.2941,-36 564.037,-36 564.037,-36 558.037,-36 552.037,-30 552.037,-24 552.037,-24 552.037,-12 552.037,-12 552.037,-6 558.037,0 564.037,0 564.037,0 651.2941,0 651.2941,0 657.2941,0 663.2941,-6 663.2941,-12 663.2941,-12 663.2941,-24 663.2941,-24 663.2941,-30 657.2941,-36 651.2941,-36"/>
<text text-anchor="middle" x="607.6655" y="-13.8" font-family="Times,serif" font-size="14.00" fill="#000000">applicationName</text>
</g>
<!-- unittestGcdtSupercarsToySample&#45;&gt;applicationName -->
<g id="edge34" class="edge">
<title>unittestGcdtSupercarsToySample&#45;&gt;applicationName</title>
<path fill="none" stroke="#000000" d="M592.8186,-143.7623C595.7182,-119.201 600.9072,-75.2474 604.3182,-46.3541"/>
<polygon fill="#000000" stroke="#000000" points="607.8333,-46.431 605.5299,-36.0896 600.8816,-45.6103 607.8333,-46.431"/>
</g>
<!-- ELBDNSRecord -->
<g id="node7" class="node">
<title>ELBDNSRecord</title>
<polygon fill="none" stroke="#000000" points="780.0416,-252 669.2895,-252 669.2895,-216 780.0416,-216 780.0416,-252"/>
<text text-anchor="start" x="705.3394" y="-239.6" font-family="Times,serif" font-size="8.00" fill="#000000">[RecordSet]</text>
<text text-anchor="start" x="677.2275" y="-226.8" font-family="Times,serif" font-size="14.00" fill="#000000">ELBDNSRecord</text>
</g>
<!-- FancyLoadBalancerDNSName -->
<g id="node28" class="node">
<title>FancyLoadBalancerDNSName</title>
<path fill="#d3d3d3" stroke="#000000" d="M859.8248,-36C859.8248,-36 693.5063,-36 693.5063,-36 687.5063,-36 681.5063,-30 681.5063,-24 681.5063,-24 681.5063,-12 681.5063,-12 681.5063,-6 687.5063,0 693.5063,0 693.5063,0 859.8248,0 859.8248,0 865.8248,0 871.8248,-6 871.8248,-12 871.8248,-12 871.8248,-24 871.8248,-24 871.8248,-30 865.8248,-36 859.8248,-36"/>
<text text-anchor="middle" x="776.6655" y="-13.8" font-family="Times,serif" font-size="14.00" fill="#000000">FancyLoadBalancerDNSName</text>
</g>
<!-- ELBDNSRecord&#45;&gt;FancyLoadBalancerDNSName -->
<g id="edge35" class="edge">
<title>ELBDNSRecord&#45;&gt;FancyLoadBalancerDNSName</title>
<path fill="none" stroke="#000000" d="M729.0096,-215.9555C738.0713,-178.3144 759.0465,-91.1867 769.8948,-46.1246"/>
<polygon fill="#000000" stroke="#000000" points="773.3594,-46.6865 772.2973,-36.1451 766.5539,-45.0481 773.3594,-46.6865"/>
</g>
<!-- InstanceRoleInstancerolepoliciesPolicy -->
<g id="node8" class="node">
<title>InstanceRoleInstancerolepoliciesPolicy</title>
<polygon fill="none" stroke="#000000" points="2010.9801,-324 1774.351,-324 1774.351,-288 2010.9801,-288 2010.9801,-324"/>
<text text-anchor="start" x="1879.7788" y="-311.6" font-family="Times,serif" font-size="8.00" fill="#000000">[Policy]</text>
<text text-anchor="start" x="1782.2583" y="-298.8" font-family="Times,serif" font-size="14.00" fill="#000000">InstanceRoleInstancerolepoliciesPolicy</text>
</g>
<!-- SupercarsAutoscalingGroup&#45;&gt;ScaleDown1 -->
<g id="edge1" class="edge">
<title>SupercarsAutoscalingGroup&#45;&gt;ScaleDown1</title>
<path fill="none" stroke="#000000" d="M1114.8248,-143.8314C1122.8167,-135.3694 1132.4693,-125.1489 1141.2072,-115.8971"/>
<polygon fill="#000000" stroke="#000000" points="1143.9535,-118.0866 1148.2752,-108.4133 1138.8644,-113.2802 1143.9535,-118.0866"/>
</g>
<!-- SupercarsAutoscalingGroup&#45;&gt;unittestGcdtSupercarsToySampleDg -->
<g id="edge21" class="edge">
<title>SupercarsAutoscalingGroup&#45;&gt;unittestGcdtSupercarsToySampleDg</title>
<path fill="none" stroke="#000000" d="M1010.3448,-151.9887C901.0201,-139.4547 713.1969,-117.9208 590.2239,-103.822"/>
<polygon fill="#000000" stroke="#000000" points="590.3432,-100.3128 580.0096,-102.6509 589.5458,-107.2673 590.3432,-100.3128"/>
</g>
<!-- ScaleUp1 -->
<g id="node14" class="node">
<title>ScaleUp1</title>
<polygon fill="none" stroke="#000000" points="1104.0946,-108 1033.2365,-108 1033.2365,-72 1104.0946,-72 1104.0946,-108"/>
<text text-anchor="start" x="1043.7808" y="-95.6" font-family="Times,serif" font-size="8.00" fill="#000000">[ScalingPolicy]</text>
<text text-anchor="start" x="1041.4517" y="-82.8" font-family="Times,serif" font-size="14.00" fill="#000000">ScaleUp1</text>
</g>
<!-- SupercarsAutoscalingGroup&#45;&gt;ScaleUp1 -->
<g id="edge24" class="edge">
<title>SupercarsAutoscalingGroup&#45;&gt;ScaleUp1</title>
<path fill="none" stroke="#000000" d="M1090.3476,-143.8314C1087.1779,-135.9617 1083.3956,-126.5712 1079.8842,-117.8533"/>
<polygon fill="#000000" stroke="#000000" points="1083.0647,-116.3815 1076.082,-108.4133 1076.5716,-118.9968 1083.0647,-116.3815"/>
</g>
<!-- SupercarsToySampleFrontendWeb -->
<g id="node10" class="node">
<title>SupercarsToySampleFrontendWeb</title>
<polygon fill="none" stroke="#000000" points="1394.7987,-324 1184.5324,-324 1184.5324,-288 1394.7987,-288 1394.7987,-324"/>
<text text-anchor="start" x="1263.4507" y="-311.6" font-family="Times,serif" font-size="8.00" fill="#000000">[SecurityGroup]</text>
<text text-anchor="start" x="1192.3491" y="-298.8" font-family="Times,serif" font-size="14.00" fill="#000000">SupercarsToySampleFrontendWeb</text>
</g>
<!-- SupercarsToySampleFrontendWeb&#45;&gt;LaunchConfiguration -->
<g id="edge30" class="edge">
<title>SupercarsToySampleFrontendWeb&#45;&gt;LaunchConfiguration</title>
<path fill="none" stroke="#000000" d="M1278.0578,-287.8314C1272.8678,-279.7079 1266.6424,-269.9637 1260.9231,-261.0118"/>
<polygon fill="#000000" stroke="#000000" points="1263.7629,-258.9559 1255.4296,-252.4133 1257.8641,-262.7246 1263.7629,-258.9559"/>
</g>
<!-- InstanceRoleSupercarsSupercarstoysampleInstance -->
<g id="node11" class="node">
<title>InstanceRoleSupercarsSupercarstoysampleInstance</title>
<polygon fill="none" stroke="#000000" points="1882.3356,-396 1578.9954,-396 1578.9954,-360 1882.3356,-360 1882.3356,-396"/>
<text text-anchor="start" x="1720.4468" y="-383.6" font-family="Times,serif" font-size="8.00" fill="#000000">[Role]</text>
<text text-anchor="start" x="1586.8306" y="-370.8" font-family="Times,serif" font-size="14.00" fill="#000000">InstanceRoleSupercarsSupercarstoysampleInstance</text>
</g>
<!-- InstanceRoleSupercarsSupercarstoysampleInstance&#45;&gt;InstanceRoleSupercarsServiceSupercarsToySample -->
<g id="edge4" class="edge">
<title>InstanceRoleSupercarsSupercarstoysampleInstance&#45;&gt;InstanceRoleSupercarsServiceSupercarsToySample</title>
<path fill="none" stroke="#000000" d="M1698.6181,-359.8314C1682.2236,-350.5368 1662.087,-339.1208 1644.5827,-329.1971"/>
<polygon fill="#000000" stroke="#000000" points="1646.1282,-326.05 1635.7027,-324.1628 1642.6758,-332.1395 1646.1282,-326.05"/>
</g>
<!-- InstanceRoleSupercarsSupercarstoysampleInstance&#45;&gt;InstanceRoleInstancerolepoliciesPolicy -->
<g id="edge10" class="edge">
<title>InstanceRoleSupercarsSupercarstoysampleInstance&#45;&gt;InstanceRoleInstancerolepoliciesPolicy</title>
<path fill="none" stroke="#000000" d="M1771.545,-359.8314C1793.2115,-350.2018 1820.0018,-338.295 1842.8733,-328.1299"/>
<polygon fill="#000000" stroke="#000000" points="1844.3634,-331.2978 1852.08,-324.038 1841.5204,-324.9011 1844.3634,-331.2978"/>
</g>
<!-- SupercarsToySampleFrontendELB -->
<g id="node12" class="node">
<title>SupercarsToySampleFrontendELB</title>
<polygon fill="none" stroke="#000000" points="1356.4264,-396 1144.9047,-396 1144.9047,-360 1356.4264,-360 1356.4264,-396"/>
<text text-anchor="start" x="1224.4507" y="-383.6" font-family="Times,serif" font-size="8.00" fill="#000000">[SecurityGroup]</text>
<text text-anchor="start" x="1152.7852" y="-370.8" font-family="Times,serif" font-size="14.00" fill="#000000">SupercarsToySampleFrontendELB</text>
</g>
<!-- SupercarsToySampleFrontendELB&#45;&gt;SupercarsToySampleFrontendWeb -->
<g id="edge16" class="edge">
<title>SupercarsToySampleFrontendELB&#45;&gt;SupercarsToySampleFrontendWeb</title>
<path fill="none" stroke="#000000" d="M1260.5069,-359.8314C1264.8613,-351.7925 1270.0753,-342.1666 1274.8825,-333.2918"/>
<polygon fill="#000000" stroke="#000000" points="1278.0063,-334.8732 1279.6917,-324.4133 1271.8513,-331.5392 1278.0063,-334.8732"/>
</g>
<!-- SupercarsToySampleFrontendELB&#45;&gt;SupercarsElasticLoadBalancer -->
<g id="edge27" class="edge">
<title>SupercarsToySampleFrontendELB&#45;&gt;SupercarsElasticLoadBalancer</title>
<path fill="none" stroke="#000000" d="M1182.3795,-359.9243C1144.2255,-349.8247 1096.5254,-337.1982 1056.8759,-326.7027"/>
<polygon fill="#000000" stroke="#000000" points="1057.5423,-323.2587 1046.9796,-324.0831 1055.751,-330.0256 1057.5423,-323.2587"/>
</g>
<!-- DeploymentGroup -->
<g id="node30" class="node">
<title>DeploymentGroup</title>
<path fill="#d3d3d3" stroke="#000000" d="M518.145,-36C518.145,-36 421.186,-36 421.186,-36 415.186,-36 409.186,-30 409.186,-24 409.186,-24 409.186,-12 409.186,-12 409.186,-6 415.186,0 421.186,0 421.186,0 518.145,0 518.145,0 524.145,0 530.145,-6 530.145,-12 530.145,-12 530.145,-24 530.145,-24 530.145,-30 524.145,-36 518.145,-36"/>
<text text-anchor="middle" x="469.6655" y="-13.8" font-family="Times,serif" font-size="14.00" fill="#000000">DeploymentGroup</text>
</g>
<!-- unittestGcdtSupercarsToySampleDg&#45;&gt;DeploymentGroup -->
<g id="edge37" class="edge">
<title>unittestGcdtSupercarsToySampleDg&#45;&gt;DeploymentGroup</title>
<path fill="none" stroke="#000000" d="M469.6655,-71.8314C469.6655,-64.131 469.6655,-54.9743 469.6655,-46.4166"/>
<polygon fill="#000000" stroke="#000000" points="473.1656,-46.4132 469.6655,-36.4133 466.1656,-46.4133 473.1656,-46.4132"/>
</g>
<!-- SupercarsElasticLoadBalancer&#45;&gt;ELBDNSRecord -->
<g id="edge9" class="edge">
<title>SupercarsElasticLoadBalancer&#45;&gt;ELBDNSRecord</title>
<path fill="none" stroke="#000000" d="M914.8985,-287.9243C876.8573,-277.141 828.6538,-263.477 790.2887,-252.6019"/>
<polygon fill="#000000" stroke="#000000" points="790.8291,-249.1172 780.2536,-249.7572 788.92,-255.8518 790.8291,-249.1172"/>
</g>
<!-- SupercarsElasticLoadBalancer&#45;&gt;SupercarsAutoscalingGroup -->
<g id="edge15" class="edge">
<title>SupercarsElasticLoadBalancer&#45;&gt;SupercarsAutoscalingGroup</title>
<path fill="none" stroke="#000000" d="M993.737,-287.7623C1014.5706,-262.5518 1052.2883,-216.9103 1076.1008,-188.0952"/>
<polygon fill="#000000" stroke="#000000" points="1079.0442,-190.0277 1082.7165,-180.0896 1073.6483,-185.5685 1079.0442,-190.0277"/>
</g>
<!-- LoadBalancerDNSName -->
<g id="node29" class="node">
<title>LoadBalancerDNSName</title>
<path fill="#d3d3d3" stroke="#000000" d="M1044.6108,-36C1044.6108,-36 912.7202,-36 912.7202,-36 906.7202,-36 900.7202,-30 900.7202,-24 900.7202,-24 900.7202,-12 900.7202,-12 900.7202,-6 906.7202,0 912.7202,0 912.7202,0 1044.6108,0 1044.6108,0 1050.6108,0 1056.6108,-6 1056.6108,-12 1056.6108,-12 1056.6108,-24 1056.6108,-24 1056.6108,-30 1050.6108,-36 1044.6108,-36"/>
<text text-anchor="middle" x="978.6655" y="-13.8" font-family="Times,serif" font-size="14.00" fill="#000000">LoadBalancerDNSName</text>
</g>
<!-- SupercarsElasticLoadBalancer&#45;&gt;LoadBalancerDNSName -->
<g id="edge36" class="edge">
<title>SupercarsElasticLoadBalancer&#45;&gt;LoadBalancerDNSName</title>
<path fill="none" stroke="#000000" d="M978.6655,-287.9843C978.6655,-239.2939 978.6655,-104.7961 978.6655,-46.0573"/>
<polygon fill="#000000" stroke="#000000" points="982.1656,-46.0088 978.6655,-36.0089 975.1656,-46.0089 982.1656,-46.0088"/>
</g>
<!-- LaunchConfiguration&#45;&gt;SupercarsAutoscalingGroup -->
<g id="edge11" class="edge">
<title>LaunchConfiguration&#45;&gt;SupercarsAutoscalingGroup</title>
<path fill="none" stroke="#000000" d="M1206.8236,-215.8314C1187.5573,-206.3302 1163.7956,-194.6121 1143.3663,-184.5374"/>
<polygon fill="#000000" stroke="#000000" points="1144.7593,-181.3219 1134.2426,-180.038 1141.6632,-187.6 1144.7593,-181.3219"/>
</g>
<!-- LambdaLookupARN -->
<g id="node18" class="node">
<title>LambdaLookupARN</title>
<path fill="#d3d3d3" stroke="#000000" d="M1122.145,-468C1122.145,-468 1011.186,-468 1011.186,-468 1005.186,-468 999.186,-462 999.186,-456 999.186,-456 999.186,-444 999.186,-444 999.186,-438 1005.186,-432 1011.186,-432 1011.186,-432 1122.145,-432 1122.145,-432 1128.145,-432 1134.145,-438 1134.145,-444 1134.145,-444 1134.145,-456 1134.145,-456 1134.145,-462 1128.145,-468 1122.145,-468"/>
<text text-anchor="middle" x="1066.6655" y="-445.8" font-family="Times,serif" font-size="14.00" fill="#000000">LambdaLookupARN</text>
</g>
<!-- LambdaLookupARN&#45;&gt;EC2Basics -->
<g id="edge3" class="edge">
<title>LambdaLookupARN&#45;&gt;EC2Basics</title>
<path fill="none" stroke="#000000" d="M1071.9647,-431.8314C1074.2353,-424.0463 1076.9401,-414.7729 1079.4596,-406.1347"/>
<polygon fill="#000000" stroke="#000000" points="1082.8549,-406.9933 1082.295,-396.4133 1076.1349,-405.0332 1082.8549,-406.9933"/>
</g>
<!-- DefaultInstancePolicyARN -->
<g id="node19" class="node">
<title>DefaultInstancePolicyARN</title>
<path fill="#d3d3d3" stroke="#000000" d="M1803.6245,-468C1803.6245,-468 1657.7065,-468 1657.7065,-468 1651.7065,-468 1645.7065,-462 1645.7065,-456 1645.7065,-456 1645.7065,-444 1645.7065,-444 1645.7065,-438 1651.7065,-432 1657.7065,-432 1657.7065,-432 1803.6245,-432 1803.6245,-432 1809.6245,-432 1815.6245,-438 1815.6245,-444 1815.6245,-444 1815.6245,-456 1815.6245,-456 1815.6245,-462 1809.6245,-468 1803.6245,-468"/>
<text text-anchor="middle" x="1730.6655" y="-445.8" font-family="Times,serif" font-size="14.00" fill="#000000">DefaultInstancePolicyARN</text>
</g>
<!-- DefaultInstancePolicyARN&#45;&gt;InstanceRoleSupercarsSupercarstoysampleInstance -->
<g id="edge18" class="edge">
<title>DefaultInstancePolicyARN&#45;&gt;InstanceRoleSupercarsSupercarstoysampleInstance</title>
<path fill="none" stroke="#000000" d="M1730.6655,-431.8314C1730.6655,-424.131 1730.6655,-414.9743 1730.6655,-406.4166"/>
<polygon fill="#000000" stroke="#000000" points="1734.1656,-406.4132 1730.6655,-396.4133 1727.1656,-406.4133 1734.1656,-406.4132"/>
</g>
<!-- ScaleMinCapacity -->
<g id="node20" class="node">
<title>ScaleMinCapacity</title>
<path fill="#d3d3d3" stroke="#000000" d="M926.5803,-468C926.5803,-468 830.7507,-468 830.7507,-468 824.7507,-468 818.7507,-462 818.7507,-456 818.7507,-456 818.7507,-444 818.7507,-444 818.7507,-438 824.7507,-432 830.7507,-432 830.7507,-432 926.5803,-432 926.5803,-432 932.5803,-432 938.5803,-438 938.5803,-444 938.5803,-444 938.5803,-456 938.5803,-456 938.5803,-462 932.5803,-468 926.5803,-468"/>
<text text-anchor="middle" x="878.6655" y="-445.8" font-family="Times,serif" font-size="14.00" fill="#000000">ScaleMinCapacity</text>
</g>
<!-- ScaleMinCapacity&#45;&gt;SupercarsAutoscalingGroup -->
<g id="edge12" class="edge">
<title>ScaleMinCapacity&#45;&gt;SupercarsAutoscalingGroup</title>
<path fill="none" stroke="#000000" d="M872.6593,-431.96C863.2976,-400.3486 848.9134,-333.9443 875.6655,-288 906.6707,-234.7514 969.4825,-202.1762 1020.4052,-183.5253"/>
<polygon fill="#000000" stroke="#000000" points="1021.8358,-186.7316 1030.0911,-180.0909 1019.4964,-180.1341 1021.8358,-186.7316"/>
</g>
<!-- ScaleMaxCapacity -->
<g id="node21" class="node">
<title>ScaleMaxCapacity</title>
<path fill="#d3d3d3" stroke="#000000" d="M2087.4041,-468C2087.4041,-468 1989.927,-468 1989.927,-468 1983.927,-468 1977.927,-462 1977.927,-456 1977.927,-456 1977.927,-444 1977.927,-444 1977.927,-438 1983.927,-432 1989.927,-432 1989.927,-432 2087.4041,-432 2087.4041,-432 2093.4041,-432 2099.4041,-438 2099.4041,-444 2099.4041,-444 2099.4041,-456 2099.4041,-456 2099.4041,-462 2093.4041,-468 2087.4041,-468"/>
<text text-anchor="middle" x="2038.6655" y="-445.8" font-family="Times,serif" font-size="14.00" fill="#000000">ScaleMaxCapacity</text>
</g>
<!-- ScaleMaxCapacity&#45;&gt;SupercarsAutoscalingGroup -->
<g id="edge13" class="edge">
<title>ScaleMaxCapacity&#45;&gt;SupercarsAutoscalingGroup</title>
<path fill="none" stroke="#000000" d="M2042.8363,-431.9644C2049.3916,-398.5301 2057.7427,-326.8103 2019.6655,-288 1962.4873,-229.721 1420.738,-184.9174 1195.3242,-168.6454"/>
<polygon fill="#000000" stroke="#000000" points="1195.3829,-165.1407 1185.1579,-167.9154 1194.8815,-172.1227 1195.3829,-165.1407"/>
</g>
<!-- VPCId -->
<g id="node22" class="node">
<title>VPCId</title>
<path fill="#d3d3d3" stroke="#000000" d="M1344.0621,-468C1344.0621,-468 1313.2689,-468 1313.2689,-468 1307.2689,-468 1301.2689,-462 1301.2689,-456 1301.2689,-456 1301.2689,-444 1301.2689,-444 1301.2689,-438 1307.2689,-432 1313.2689,-432 1313.2689,-432 1344.0621,-432 1344.0621,-432 1350.0621,-432 1356.0621,-438 1356.0621,-444 1356.0621,-444 1356.0621,-456 1356.0621,-456 1356.0621,-462 1350.0621,-468 1344.0621,-468"/>
<text text-anchor="middle" x="1328.6655" y="-445.8" font-family="Times,serif" font-size="14.00" fill="#000000">VPCId</text>
</g>
<!-- VPCId&#45;&gt;SupercarsToySampleFrontendWeb -->
<g id="edge17" class="edge">
<title>VPCId&#45;&gt;SupercarsToySampleFrontendWeb</title>
<path fill="none" stroke="#000000" d="M1345.6032,-431.6564C1360.5113,-413.1705 1378.064,-384.019 1365.6655,-360 1359.3943,-347.8511 1348.9873,-337.8403 1337.8566,-329.8794"/>
<polygon fill="#000000" stroke="#000000" points="1339.531,-326.7905 1329.2603,-324.1898 1335.6675,-332.6277 1339.531,-326.7905"/>
</g>
<!-- VPCId&#45;&gt;SupercarsToySampleFrontendELB -->
<g id="edge19" class="edge">
<title>VPCId&#45;&gt;SupercarsToySampleFrontendELB</title>
<path fill="none" stroke="#000000" d="M1308.9828,-431.8314C1299.5604,-423.1337 1288.1254,-412.5783 1277.8859,-403.1265"/>
<polygon fill="#000000" stroke="#000000" points="1280.064,-400.3738 1270.3419,-396.1628 1275.316,-405.5175 1280.064,-400.3738"/>
</g>
<!-- HostedZone -->
<g id="node23" class="node">
<title>HostedZone</title>
<path fill="#d3d3d3" stroke="#000000" d="M667.0944,-468C667.0944,-468 606.2367,-468 606.2367,-468 600.2367,-468 594.2367,-462 594.2367,-456 594.2367,-456 594.2367,-444 594.2367,-444 594.2367,-438 600.2367,-432 606.2367,-432 606.2367,-432 667.0944,-432 667.0944,-432 673.0944,-432 679.0944,-438 679.0944,-444 679.0944,-444 679.0944,-456 679.0944,-456 679.0944,-462 673.0944,-468 667.0944,-468"/>
<text text-anchor="middle" x="636.6655" y="-445.8" font-family="Times,serif" font-size="14.00" fill="#000000">HostedZone</text>
</g>
<!-- HostedZone&#45;&gt;ELBDNSRecord -->
<g id="edge7" class="edge">
<title>HostedZone&#45;&gt;ELBDNSRecord</title>
<path fill="none" stroke="#000000" d="M640.0711,-431.9555C652.0231,-394.0762 687.632,-306.0818 708.8862,-261.274"/>
<polygon fill="#000000" stroke="#000000" points="712.0993,-262.6696 713.318,-252.1451 705.8021,-259.6125 712.0993,-262.6696"/>
</g>
<!-- HostedZone&#45;&gt;ELBDNSRecord -->
<g id="edge8" class="edge">
<title>HostedZone&#45;&gt;ELBDNSRecord</title>
<path fill="none" stroke="#000000" d="M647.9629,-431.9555C666.7963,-394.235 702.6633,-306.8188 718.0285,-261.8399"/>
<polygon fill="#000000" stroke="#000000" points="721.4177,-262.7382 721.2282,-252.1451 714.7704,-260.5443 721.4177,-262.7382"/>
</g>
<!-- BaseStackName -->
<g id="node24" class="node">
<title>BaseStackName</title>
<path fill="#d3d3d3" stroke="#000000" d="M1247.4109,-468C1247.4109,-468 1163.9201,-468 1163.9201,-468 1157.9201,-468 1151.9201,-462 1151.9201,-456 1151.9201,-456 1151.9201,-444 1151.9201,-444 1151.9201,-438 1157.9201,-432 1163.9201,-432 1163.9201,-432 1247.4109,-432 1247.4109,-432 1253.4109,-432 1259.4109,-438 1259.4109,-444 1259.4109,-444 1259.4109,-456 1259.4109,-456 1259.4109,-462 1253.4109,-468 1247.4109,-468"/>
<text text-anchor="middle" x="1205.6655" y="-445.8" font-family="Times,serif" font-size="14.00" fill="#000000">BaseStackName</text>
</g>
<!-- BaseStackName&#45;&gt;EC2Basics -->
<g id="edge2" class="edge">
<title>BaseStackName&#45;&gt;EC2Basics</title>
<path fill="none" stroke="#000000" d="M1175.8891,-431.8314C1160.7962,-422.6221 1142.2899,-411.3301 1126.1313,-401.4706"/>
<polygon fill="#000000" stroke="#000000" points="1127.7918,-398.3838 1117.4324,-396.1628 1124.1457,-404.3593 1127.7918,-398.3838"/>
</g>
<!-- ELBDNSName -->
<g id="node25" class="node">
<title>ELBDNSName</title>
<path fill="#d3d3d3" stroke="#000000" d="M788.5416,-468C788.5416,-468 708.7895,-468 708.7895,-468 702.7895,-468 696.7895,-462 696.7895,-456 696.7895,-456 696.7895,-444 696.7895,-444 696.7895,-438 702.7895,-432 708.7895,-432 708.7895,-432 788.5416,-432 788.5416,-432 794.5416,-432 800.5416,-438 800.5416,-444 800.5416,-444 800.5416,-456 800.5416,-456 800.5416,-462 794.5416,-468 788.5416,-468"/>
<text text-anchor="middle" x="748.6655" y="-445.8" font-family="Times,serif" font-size="14.00" fill="#000000">ELBDNSName</text>
</g>
<!-- ELBDNSName&#45;&gt;ELBDNSRecord -->
<g id="edge5" class="edge">
<title>ELBDNSName&#45;&gt;ELBDNSRecord</title>
<path fill="none" stroke="#000000" d="M746.6606,-431.9555C742.4782,-394.3144 732.7974,-307.1867 727.7905,-262.1246"/>
<polygon fill="#000000" stroke="#000000" points="731.2646,-261.6974 726.6816,-252.1451 724.3075,-262.4704 731.2646,-261.6974"/>
</g>
<!-- InstanceType -->
<g id="node26" class="node">
<title>InstanceType</title>
<path fill="#d3d3d3" stroke="#000000" d="M1456.0962,-468C1456.0962,-468 1389.2348,-468 1389.2348,-468 1383.2348,-468 1377.2348,-462 1377.2348,-456 1377.2348,-456 1377.2348,-444 1377.2348,-444 1377.2348,-438 1383.2348,-432 1389.2348,-432 1389.2348,-432 1456.0962,-432 1456.0962,-432 1462.0962,-432 1468.0962,-438 1468.0962,-444 1468.0962,-444 1468.0962,-456 1468.0962,-456 1468.0962,-462 1462.0962,-468 1456.0962,-468"/>
<text text-anchor="middle" x="1422.6655" y="-445.8" font-family="Times,serif" font-size="14.00" fill="#000000">InstanceType</text>
</g>
<!-- InstanceType&#45;&gt;LaunchConfiguration -->
<g id="edge33" class="edge">
<title>InstanceType&#45;&gt;LaunchConfiguration</title>
<path fill="none" stroke="#000000" d="M1426.2407,-431.8425C1431.5664,-399.1537 1437.629,-329.9116 1403.6655,-288 1392.5725,-274.3109 1356.6233,-261.572 1321.6049,-251.9088"/>
<polygon fill="#000000" stroke="#000000" points="1322.3398,-248.4822 1311.7741,-249.2667 1320.5229,-255.2423 1322.3398,-248.4822"/>
</g>
<!-- AWS::Region -->
<g id="node32" class="node">
<title>AWS::Region</title>
<ellipse fill="none" stroke="#000000" cx="604.6655" cy="-306" rx="59.529" ry="18"/>
<text text-anchor="middle" x="604.6655" y="-301.8" font-family="Times,serif" font-size="14.00" fill="#000000">AWS::Region</text>
</g>
<!-- AWS::Region&#45;&gt;ELBDNSRecord -->
<g id="edge6" class="edge">
<title>AWS::Region&#45;&gt;ELBDNSRecord</title>
<path fill="none" stroke="#000000" d="M631.5959,-289.8418C647.4838,-280.309 667.8708,-268.0769 685.512,-257.4921"/>
<polygon fill="#000000" stroke="#000000" points="687.6744,-260.2764 694.4486,-252.1301 684.0729,-254.2739 687.6744,-260.2764"/>
</g>
<!-- AWS::AccountId -->
<g id="node33" class="node">
<title>AWS::AccountId</title>
<ellipse fill="none" stroke="#000000" cx="959.6655" cy="-378" rx="71.0891" ry="18"/>
<text text-anchor="middle" x="959.6655" y="-373.8" font-family="Times,serif" font-size="14.00" fill="#000000">AWS::AccountId</text>
</g>
<!-- AWS::AccountId&#45;&gt;SupercarsElasticLoadBalancer -->
<g id="edge26" class="edge">
<title>AWS::AccountId&#45;&gt;SupercarsElasticLoadBalancer</title>
<path fill="none" stroke="#000000" d="M964.46,-359.8314C966.5144,-352.0463 968.9616,-342.7729 971.2411,-334.1347"/>
<polygon fill="#000000" stroke="#000000" points="974.639,-334.9753 973.8065,-324.4133 967.8707,-333.1892 974.639,-334.9753"/>
</g>
</g>
</svg>
